HIERARCHY
ROOT Hips
{
  OFFSET 90.7885 88.945 -76.2838
  CHANNELS 6 Xposition Yposition Zposition Zrotation Xrotation Yrotation
  JOINT LeftUpLeg
  {
    OFFSET 8.64259 1.95398 -2.38835
    CHANNELS 3 Zrotation Xrotation Yrotation
    JOINT LeftLeg
    {
      OFFSET 43.7702 0 0
      CHANNELS 3 Zrotation Xrotation Yrotation
      JOINT LeftFoot
      {
        OFFSET 40.6238 0 0
        CHANNELS 3 Zrotation Xrotation Yrotation
        JOINT LeftToeBase
        {
          OFFSET 12.7242 0 0
          CHANNELS 3 Zrotation Xrotation Yrotation
          End Site
          {
            OFFSET 0 0 0
          }
        }
      }
    }
  }
  JOINT RightUpLeg
  {
    OFFSET -8.2249 1.95398 -2.59336
    CHANNELS 3 Zrotation Xrotation Yrotation
    JOINT RightLeg
    {
      OFFSET 43.5653 0 0
      CHANNELS 3 Zrotation Xrotation Yrotation
      JOINT RightFoot
      {
        OFFSET 40.6238 0 0
        CHANNELS 3 Zrotation Xrotation Yrotation
        JOINT RightToeBase
        {
          OFFSET 12.7242 0 0
          CHANNELS 3 Zrotation Xrotation Yrotation
          End Site
          {
            OFFSET 0 0 0
          }
        }
      }
    }
  }
  JOINT Spine
  {
    OFFSET 0.165834 0.87714 6.61349
    CHANNELS 3 Zrotation Xrotation Yrotation
    JOINT Spine1
    {
      OFFSET 7.38963 1.71661e-005 0
      CHANNELS 3 Zrotation Xrotation Yrotation
      JOINT Spine2
      {
        OFFSET 11.9445 1.14441e-005 0
        CHANNELS 3 Zrotation Xrotation Yrotation
        JOINT Spine3
        {
          OFFSET 14.7254 4.19617e-005 0
          CHANNELS 3 Zrotation Xrotation Yrotation
          JOINT Spine4
          {
            OFFSET 10.9679 0 0
            CHANNELS 3 Zrotation Xrotation Yrotation
            JOINT RightShoulder
            {
              OFFSET 2.46616 -1.6653 3.69651
              CHANNELS 3 Zrotation Xrotation Yrotation
              JOINT RightArm
              {
                OFFSET 13.0012 0 0
                CHANNELS 3 Zrotation Xrotation Yrotation
                JOINT RightForeArm
                {
                  OFFSET 28.7848 1.52588e-005 0
                  CHANNELS 3 Zrotation Xrotation Yrotation
                  JOINT RightHand
                  {
                    OFFSET 26.5688 1.52588e-005 0
                    CHANNELS 3 Zrotation Xrotation Yrotation
                    End Site
                    {
                      OFFSET 0 0 0
                    }
                  }
                }
              }
            }
            JOINT LeftShoulder
            {
              OFFSET 2.38034 -1.29275 -3.7523
              CHANNELS 3 Zrotation Xrotation Yrotation
              JOINT LeftArm
              {
                OFFSET 16.3182 6.10352e-005 0
                CHANNELS 3 Zrotation Xrotation Yrotation
                JOINT LeftForeArm
                {
                  OFFSET 27.0901 0 0
                  CHANNELS 3 Zrotation Xrotation Yrotation
                  JOINT LeftHand
                  {
                    OFFSET 24.5451 1.52588e-005 0
                    CHANNELS 3 Zrotation Xrotation Yrotation
                    End Site
                    {
                      OFFSET 0 0 0
                    }
                  }
                }
              }
            }
            JOINT Neck
            {
              OFFSET 5.0226 -0.0266342 0
              CHANNELS 3 Zrotation Xrotation Yrotation
              JOINT Head
              {
                OFFSET 6.69363 2.86102e-005 0
                CHANNELS 3 Zrotation Xrotation Yrotation
                End Site
                {
                  OFFSET 0 0 0
                }
              }
            }
          }
        }
      }
    }
  }
}
MOTION
Frames:	17
Frame Time:	0.0416667
255.45 93.3396 235.92 -90.0541 44.3617 -88.3792 -176.545 32.2169 84.9447 -24.7579 9.10632 -4.18523 62.1334 1.09626 -0.744435 21.4016 5.55354 -5.87066 165.964 -29.1889 83.9909 -74.9489 -15.2757 -0.751371 61.182 -1.20292 -1.97773 106.451 -5.27948 5.84671 2.90614 7.42806 -89.5828 12.0279 5.97476 0.180377 0.370714 5.97688 -0.0837244 -22.2661 5.64342 1.97347 -2.25344 5.64341 1.97346 91.2702 -16.6175 -110.064 35.3208 3.37052 2.49598 -79.1572 8.52036 -60.5771 3.67366 -6.20614 -47.4415 -82.4967 -44.7887 89.546 15.1398 3.91773 19.1287 57.7899 -39.5506 -122.589 33.1923 -17.7441 -56.0511 13.4203 -11.5883 -8.21924 -8.09808 -9.19015 -0.592358 
240.2 91.0807 220.216 -92.4001 38.4613 -91.9342 -171.461 27.9323 78.6664 -48.4756 15.6518 -7.53164 76.2015 7.77571 6.15723 0.0601941 3.19451 1.02452 161.46 -11.3186 75.067 -111.429 -9.79871 -0.915132 64.4001 -3.54294 -4.71974 64.3424 -3.51888 5.14686 1.26256 7.87547 -88.8269 11.095 3.05775 2.03774 -0.573815 3.14444 1.90115 -23.1122 2.3042 2.86231 -3.09955 2.30418 2.86229 93.1029 -26.3826 -101.581 46.461 -14.1108 10.9802 -58.7379 58.6802 -88.4084 29.7828 8.46215 24.994 -90.7931 -58.0373 79.2134 1.69425 5.09015 0.842199 42.7625 -11.1749 -110.727 24.7207 -15.4194 -62.2441 14.3829 -9.85448 -15.1858 -6.76475 -5.74596 3.60375 
226.538 89.4295 206.864 -92.1052 32.8975 -96.0694 -174.635 14.8751 75.7958 -53.3261 15.8113 -4.75969 89.729 13.9086 3.7193 9.31158 4.64355 -1.84361 175.187 18.4375 74.2161 -132.032 -21.4935 -0.523527 64.3357 -2.50386 -7.62811 10.3197 -0.533634 3.84612 -1.0302 7.73004 -88.1896 11.4078 -1.20509 3.72699 -0.268275 -1.04006 3.77631 -22.7734 -2.26877 3.19352 -2.76073 -2.26878 3.19352 94.7288 -26.9127 -98.0691 56.1247 -18.6361 28.392 -125.205 82.2258 -46.1399 54.6891 15.6383 17.0819 -91.6067 -55.5199 77.5778 -4.82502 -3.82745 -33.8001 29.3131 1.0121 -81.699 20.5169 -7.40405 -48.6353 17.7544 -4.47233 -16.0971 -13.0203 0.0454614 3.77192 
210.878 90.344 189.817 -90.9692 36.3621 -90.2254 -172.66 -5.18233 91.4869 -38.1175 17.1658 -4.66701 90.3672 13.4823 0.394931 25.0099 5.71195 -7.47697 -173.974 39.5734 81.7164 -121.261 -11.7042 -0.881005 76.828 -9.07447 -8.3417 9.5935 -1.51294 5.67791 -2.38056 7.49376 -89.2995 11.9418 -4.40218 1.88562 0.276906 -4.31491 2.0778 -22.319 -4.76501 0.472613 -2.30637 -4.765 0.472612 96.6848 -20.4992 -95.1693 58.4498 -26.7284 43.7234 -107.178 -56.0857 -104.379 76.3764 19.2778 16.4069 -89.52 -39.6097 77.0882 -9.93976 -14.9599 -49.377 153.013 13.3379 -125.69 10.5108 -16.4531 -85.3112 21.3417 4.77947 -13.2371 -18.0811 8.12725 6.12365 
193.379 93.9881 172.478 -91.6226 37.1178 -82.8701 -169.511 -29.208 98.5456 -10.1826 20.4422 0.958422 57.0432 -0.670753 2.20865 30.7822 4.27812 -6.8541 -177.882 46.0054 92.3579 -87.3568 5.1032 -1.94849 77.957 -8.92086 -3.20976 12.265 -1.40386 5.27064 -3.85731 7.63178 -90.5668 11.6239 -7.93847 -0.305952 -0.0226858 -7.94418 0.0459948 -22.7369 -7.47738 -2.69109 -2.72426 -7.47738 -2.69108 97.9858 -9.69388 -94.8553 59.3939 -27.1786 52.7581 -25.7973 -20.3266 -33.6975 -61.8892 23.4123 -50.9899 -85.0824 -19.1629 80.016 0.881892 -10.1455 -39.6069 144.296 19.8436 -129.401 -7.56586 4.16849 -83.0627 28.4537 12.5512 -13.6937 -28.9486 14.4814 12.6988 
176.32 95.5709 155.632 -88.3511 37.8768 -81.9543 -167.108 -33.861 102.216 -16.1037 8.27845 2.32607 58.3168 0.0593789 2.6052 16.7519 -0.872485 3.06708 -178.889 40.6581 94.6405 -40.7049 -10.7092 -2.17029 70.1229 -6.1883 -3.10465 15.4174 -1.07949 4.40427 -4.1349 7.64582 -91.4017 11.526 -8.88101 -1.88291 -0.115191 -8.9552 -1.4872 -22.8432 -7.90255 -4.47952 -2.8305 -7.90254 -4.47953 98.4597 -5.23453 -94.7722 47.0299 -17.2217 53.9127 -13.9122 -22.2445 -43.6092 -10.3001 -2.44428 -26.4627 -83.3756 -0.351239 77.8294 9.20581 6.37503 -29.7445 100.377 28.6656 -101.794 -27.233 12.7223 -58.2351 31.9883 13.406 -18.5065 -32.23 15.5461 19.5963 
159.661 94.2577 139.201 -93.2949 39.0883 -82.4579 -164.79 -35.1457 101.258 -41.621 0.515515 -0.306387 59.6297 0.789958 4.23803 24.5625 1.12613 -0.69723 179.196 26.6344 92.8374 -11.3022 -20.9761 -1.59043 61.7314 -2.48437 -2.07732 19.6932 0.0434624 1.73982 -3.95397 7.6166 -90.9674 11.6292 -8.31839 -1.0648 -0.0150336 -8.35713 -0.695101 -22.7349 -7.61177 -3.52946 -2.72224 -7.61176 -3.52946 97.8591 -7.91264 -96.3876 51.4512 -10.6837 56.6099 -29.5593 -32.8042 -51.9447 -46.8316 -0.0112504 -11.7891 -82.8407 -4.58094 79.7933 10.9111 12.2839 -32.7256 99.6247 15.6785 -98.3005 -42.9489 15.0647 -44.0891 25.6185 16.0209 -10.1867 -26.9134 16.5107 12.6799 
144.98 90.9066 123.58 -98.385 42.5086 -80.081 -158.66 -21.4066 103.659 -81.7581 10.7734 1.8279 61.256 1.56259 5.69269 20.9597 4.94403 -5.00824 177.927 30.5948 94.3581 -40.5676 -21.0216 -1.59443 64.041 -2.50017 -3.67494 14.286 -0.783455 3.90615 -3.00294 7.58824 -90.8992 11.6709 -6.39417 -1.11238 0.0152741 -6.43689 -0.82875 -22.6225 -5.76366 -2.9885 -2.6098 -5.76368 -2.9885 95.1913 -20.9303 -98.6348 40.5125 2.02365 46.8123 -29.3846 -29.487 -55.9129 -42.8948 0.327343 -13.566 -87.0485 -29.3041 78.7665 10.7019 7.39856 -20.468 110.015 -6.92002 -89.0659 -54.0616 17.1655 -43.2134 15.2196 17.0565 2.62817 -15.5051 15.2887 6.1489 
132.415 88.7023 109.645 -101.755 47.3701 -67.4299 -156.835 6.6688 110.488 -116.067 12.7642 7.36154 63.0633 1.51182 8.6483 16.0221 8.45791 -7.80432 177.166 23.2609 105.168 -53.8145 -23.3735 1.28344 78.655 -10.7678 -7.59752 18.4535 -1.60032 5.02974 -1.45909 8.30704 -92.2283 10.1733 -3.92351 -4.09301 -1.49762 -4.09973 -3.91651 -24.0041 -2.51382 -5.08112 -3.99145 -2.51384 -5.08113 93.5491 -31.3572 -99.2896 33.7521 3.18894 12.5746 -27.1008 -24.1818 -58.7426 -41.1277 -0.097497 -11.0948 -88.5391 -52.9737 81.465 2.00194 1.35894 -3.24994 71.8496 -28.3792 -97.6982 1.62723 -0.010049 -2.06535 21.9805 16.7469 8.23978 -15.9101 13.3146 1.99312 
118.318 89.1313 96.7319 -100.513 48.0336 -71.2878 -166.336 32.6594 98.0448 -123.449 10.4313 8.0913 67.6367 3.7981 10.2007 10.9712 8.49332 -6.36644 177.594 6.95979 101.125 -53.3278 -24.0266 -0.81459 90.0654 -15.6503 -2.58073 20.3435 -0.519589 2.77238 -0.30207 7.98795 -91.7153 10.8778 -1.39516 -3.2933 -0.797012 -1.53863 -3.22883 -23.2958 -0.341814 -3.55996 -3.28317 -0.341806 -3.55996 91.7827 -31.0258 -102.825 33.2555 9.54442 -16.7396 -30.9017 -27.4317 -65.6419 -44.9991 -1.14991 -8.54998 -85.6418 -52.7052 85.6427 -20.5983 12.3831 23.0752 58.0039 -25.9075 -100.143 33.2572 3.3752 6.8915 16.7033 9.67752 6.01493 -12.4988 7.55717 1.53797 
101.831 92.9716 81.7443 -104.199 52.7965 -72.736 -168.992 42.0812 92.799 -101.429 -1.91724 5.10521 75.9261 7.88373 7.76918 14.0457 7.8613 -6.59381 173.513 -11.8253 93.4955 -39.5633 -37.0158 -5.30456 75.8115 -8.75878 -3.41315 30.5918 -3.30156 7.61607 2.42079 7.76878 -90.6111 11.3798 4.53253 -1.65872 -0.285181 4.45515 -1.85686 -22.8794 4.8214 -0.217241 -2.8668 4.82141 -0.217241 94.174 -19.2468 -101.732 42.6592 25.0295 -24.3687 -27.7593 -21.6957 -79.3395 -49.7181 -0.0650383 -9.68056 -83.4169 -45.2937 88.1705 -29.9192 28.276 43.3332 71.1085 -33.4482 -91.2221 30.1818 2.61776 5.40956 15.4835 -3.35661 -1.46197 -12.3637 -2.75796 -0.814026 
84.0159 96.7244 65.4501 -104.973 55.942 -78.0917 -172.451 38.4959 89.9762 -65.6022 -3.77127 -0.704062 73.007 6.4939 1.81727 17.7231 3.09095 -1.87799 161.26 -25.2964 71.7509 -27.5829 -36.2855 -8.48693 65.9534 -3.30192 -3.33293 20.2433 -1.43742 4.81509 4.35287 7.8785 -89.3181 11.144 8.98168 0.484263 -0.495605 8.99417 0.0852347 -23.2592 8.41822 3.18038 -3.24656 8.4182 3.18037 95.7798 -0.981929 -107.461 33.7282 42.2634 -10.5083 -29.6828 -21.0511 -93.3289 -50.12 0.513837 -11.4756 -82.6146 -30.0737 87.5103 -43.7656 33.2666 58.6359 81.0186 -39.1887 -81.9419 0.667135 0.454532 -0.625828 16.4158 -12.5296 -4.35484 -14.638 -10.316 -6.30926 
66.7065 97.7938 49.9354 -106.288 58.6449 -76.1376 -176.523 24.648 93.3499 -17.271 -1.50888 -1.19314 63.3463 4.50343 -1.28778 20.5842 0.218454 1.06302 150.592 -30.9543 59.2371 -24.5565 -10.4137 -6.43689 74.0061 -7.32211 -3.08493 16.1425 -0.647797 3.55241 4.93706 7.63934 -89.2871 11.6184 10.155 0.368458 -0.012383 10.1613 -0.0835919 -22.8423 9.57031 3.43174 -2.82968 9.57032 3.43174 97.638 7.42171 -106.058 17.9174 33.3403 -6.14075 -31.9725 -16.3122 -97.6462 -44.1774 0.293566 -11.6147 -80.9261 -17.5571 89.4185 -45.1443 21.8431 63.0717 72.0459 -39.1614 -90.4809 28.0353 -0.0151133 -4.09239 8.12295 -12.7763 -4.10674 -9.09533 -11.2692 -7.04785 
50.1689 96.3052 34.9909 -111.332 56.5819 -66.1734 -176.615 19.8347 98.4398 -9.40855 12.3754 0.337715 60.1489 2.04954 0.413997 13.1913 -1.5197 3.8357 155.211 -33.0381 62.8174 -48.2616 5.87295 -8.29468 79.1079 -10.3578 -5.46657 10.8363 -0.125616 3.34923 4.34062 7.18918 -90.1677 12.582 8.54262 -1.34211 0.938048 8.47519 -1.71942 -21.8211 8.54823 1.3067 -1.80847 8.54822 1.30669 97.4198 5.29303 -105.197 19.4595 14.5627 4.54642 -34.8045 -5.69331 -105.595 -42.2489 0.533115 -12.239 -79.8839 -18.3136 91.8814 -62.5992 16.2538 73.1213 108.734 -26.1431 -72.6428 -78.633 43.3546 -43.2316 1.90042 -9.2967 -6.63485 -8.52721 -7.85255 -5.49819 
34.4013 91.53 21.7983 -114.595 51.4584 -64.9035 -175.276 22.101 95.507 -33.9235 20.604 0.840107 50.7947 -1.65144 -11.5578 31.5315 -7.52465 16.3867 163.697 -28.2291 66.3921 -83.3459 -6.2102 -7.10158 79.8994 -10.9998 -4.74639 12.6967 -0.193917 3.32853 2.89669 7.58079 -90.3476 11.7453 5.59816 -1.28432 0.085447 5.53622 -1.53017 -22.5452 5.72434 0.463004 -2.53254 5.72434 0.46301 95.4682 -7.99004 -103.825 27.4669 -6.93387 19.0355 -41.51 8.10792 -100.779 -35.2939 0.381875 -13.5055 -79.4218 -35.0707 94.3985 -34.0236 13.1445 55.3698 62.9035 -37.8721 -100.032 35.5278 -2.95604 1.12353 6.85976 -5.64066 -5.95545 -8.65611 -4.22324 -2.47671 
21.5095 89.7766 10.9145 -115.973 49.0243 -74.0509 -173.266 18.0835 83.881 -52.49 18.2474 -2.28802 66.198 2.56927 -15.9507 38.2538 -14.9417 24.5152 177.963 -10.6316 67.5863 -109.749 -14.0872 -2.92352 79.8509 -11.0924 -6.59664 14.3614 -2.17824 6.39444 1.36488 8.4007 -89.0181 10.0658 3.1674 1.70472 -1.60183 3.23934 1.56358 -24.1515 2.50846 2.57793 -4.13883 2.50846 2.57792 95.9447 -20.4008 -97.1517 42.5485 -9.53159 23.4711 -38.0928 -8.39774 -80.1928 -37.2877 0.267145 -12.7506 -85.4761 -55.595 86.2731 -3.23632 19.9317 13.4928 61.946 -24.3624 -94.2441 25.2344 2.05845 4.56683 16.0728 -2.48386 -8.61923 -11.3693 -0.0447543 0.581817 
10.2807 91.304 0.349332 -115.846 51.9004 -72.4148 -171.515 6.51429 86.0385 -52.0574 18.5895 -4.43312 85.2525 11.9964 3.21923 9.69331 7.34234 -4.84592 -168.577 17.069 77.8522 -111.234 -3.24807 -2.06182 78.4337 -10.8423 -8.03742 10.7593 -1.91665 6.22652 0.210616 8.03093 -88.961 10.7999 0.89897 1.98279 -0.872136 0.985351 1.94132 -23.3955 0.261656 2.16122 -3.38289 0.261658 2.16122 95.8865 -24.123 -96.258 49.5358 -8.68659 28.1724 -27.6327 -22.8637 -57.8271 -37.246 0.600005 -14.1528 -87.3874 -53.4656 83.217 17.3889 19.2325 -16.9078 59.291 -21.0683 -92.0016 26.2116 2.37676 5.29358 11.3894 4.91752 -8.31464 -12.2169 6.69643 1.19028 
